<svg width="159" height="35" viewBox="0 0 159 35" fill="none" xmlns="http://www.w3.org/2000/svg">
<path d="M10.7164 30.28C8.76974 30.28 7.00974 29.9467 5.43641 29.28C3.88974 28.6133 2.66307 27.6533 1.75641 26.4C0.84974 25.1467 0.383073 23.6667 0.356406 21.96H6.35641C6.43641 23.1067 6.83641 24.0133 7.55641 24.68C8.30307 25.3467 9.31641 25.68 10.5964 25.68C11.9031 25.68 12.9297 25.3733 13.6764 24.76C14.4231 24.12 14.7964 23.2933 14.7964 22.28C14.7964 21.4533 14.5431 20.7733 14.0364 20.24C13.5297 19.7067 12.8897 19.2933 12.1164 19C11.3697 18.68 10.3297 18.3333 8.99641 17.96C7.18307 17.4267 5.70307 16.9067 4.55641 16.4C3.43641 15.8667 2.46307 15.08 1.63641 14.04C0.836406 12.9733 0.436406 11.56 0.436406 9.8C0.436406 8.14667 0.84974 6.70667 1.67641 5.48C2.50307 4.25333 3.66307 3.32 5.15641 2.68C6.64974 2.01333 8.35641 1.68 10.2764 1.68C13.1564 1.68 15.4897 2.38667 17.2764 3.8C19.0897 5.18667 20.0897 7.13333 20.2764 9.64H14.1164C14.0631 8.68 13.6497 7.89333 12.8764 7.28C12.1297 6.64 11.1297 6.32 9.87641 6.32C8.78307 6.32 7.90307 6.6 7.23641 7.16C6.59641 7.72 6.27641 8.53333 6.27641 9.6C6.27641 10.3467 6.51641 10.9733 6.99641 11.48C7.50307 11.96 8.11641 12.36 8.83641 12.68C9.58307 12.9733 10.6231 13.32 11.9564 13.72C13.7697 14.2533 15.2497 14.7867 16.3964 15.32C17.5431 15.8533 18.5297 16.6533 19.3564 17.72C20.1831 18.7867 20.5964 20.1867 20.5964 21.92C20.5964 23.4133 20.2097 24.8 19.4364 26.08C18.6631 27.36 17.5297 28.3867 16.0364 29.16C14.5431 29.9067 12.7697 30.28 10.7164 30.28ZM35.2914 30.36C33.1581 30.36 31.2381 29.8933 29.5314 28.96C27.8247 28 26.4781 26.6533 25.4914 24.92C24.5314 23.1867 24.0514 21.1867 24.0514 18.92C24.0514 16.6533 24.5447 14.6533 25.5314 12.92C26.5447 11.1867 27.9181 9.85333 29.6514 8.92C31.3847 7.96 33.3181 7.48 35.4514 7.48C37.5847 7.48 39.5181 7.96 41.2514 8.92C42.9847 9.85333 44.3447 11.1867 45.3314 12.92C46.3447 14.6533 46.8514 16.6533 46.8514 18.92C46.8514 21.1867 46.3314 23.1867 45.2914 24.92C44.2781 26.6533 42.8914 28 41.1314 28.96C39.3981 29.8933 37.4514 30.36 35.2914 30.36ZM35.2914 25.48C36.3047 25.48 37.2514 25.24 38.1314 24.76C39.0381 24.2533 39.7581 23.5067 40.2914 22.52C40.8247 21.5333 41.0914 20.3333 41.0914 18.92C41.0914 16.8133 40.5314 15.2 39.4114 14.08C38.3181 12.9333 36.9714 12.36 35.3714 12.36C33.7714 12.36 32.4247 12.9333 31.3314 14.08C30.2647 15.2 29.7314 16.8133 29.7314 18.92C29.7314 21.0267 30.2514 22.6533 31.2914 23.8C32.3581 24.92 33.6914 25.48 35.2914 25.48ZM71.8792 7.84V30H66.2392V27.2C65.5192 28.16 64.5726 28.92 63.3992 29.48C62.2526 30.0133 60.9992 30.28 59.6392 30.28C57.9059 30.28 56.3726 29.92 55.0392 29.2C53.7059 28.4533 52.6526 27.3733 51.8792 25.96C51.1326 24.52 50.7592 22.8133 50.7592 20.84V7.84H56.3592V20.04C56.3592 21.8 56.7992 23.16 57.6792 24.12C58.5592 25.0533 59.7592 25.52 61.2792 25.52C62.8259 25.52 64.0392 25.0533 64.9192 24.12C65.7992 23.16 66.2392 21.8 66.2392 20.04V7.84H71.8792ZM89.6845 7.52C92.3245 7.52 94.4579 8.36 96.0845 10.04C97.7112 11.6933 98.5245 14.0133 98.5245 17V30H92.9245V17.76C92.9245 16 92.4845 14.6533 91.6045 13.72C90.7245 12.76 89.5245 12.28 88.0045 12.28C86.4579 12.28 85.2312 12.76 84.3245 13.72C83.4445 14.6533 83.0045 16 83.0045 17.76V30H77.4045V7.84H83.0045V10.6C83.7512 9.64 84.6979 8.89333 85.8445 8.36C87.0179 7.8 88.2979 7.52 89.6845 7.52ZM102.41 18.84C102.41 16.6 102.85 14.6133 103.73 12.88C104.637 11.1467 105.863 9.81333 107.41 8.88C108.957 7.94667 110.677 7.48 112.57 7.48C114.01 7.48 115.383 7.8 116.69 8.44C117.997 9.05333 119.037 9.88 119.81 10.92V0.4H125.49V30H119.81V26.72C119.117 27.8133 118.143 28.6933 116.89 29.36C115.637 30.0267 114.183 30.36 112.53 30.36C110.663 30.36 108.957 29.88 107.41 28.92C105.863 27.96 104.637 26.6133 103.73 24.88C102.85 23.12 102.41 21.1067 102.41 18.84ZM119.85 18.92C119.85 17.56 119.583 16.4 119.05 15.44C118.517 14.4533 117.797 13.7067 116.89 13.2C115.983 12.6667 115.01 12.4 113.97 12.4C112.93 12.4 111.97 12.6533 111.09 13.16C110.21 13.6667 109.49 14.4133 108.93 15.4C108.397 16.36 108.13 17.5067 108.13 18.84C108.13 20.1733 108.397 21.3467 108.93 22.36C109.49 23.3467 110.21 24.1067 111.09 24.64C111.997 25.1733 112.957 25.44 113.97 25.44C115.01 25.44 115.983 25.1867 116.89 24.68C117.797 24.1467 118.517 23.4 119.05 22.44C119.583 21.4533 119.85 20.28 119.85 18.92ZM151.759 34.92L147.519 29.84C146.346 30.1333 145.146 30.28 143.919 30.28C141.306 30.28 138.906 29.6667 136.719 28.44C134.533 27.2133 132.799 25.52 131.519 23.36C130.239 21.1733 129.599 18.7067 129.599 15.96C129.599 13.24 130.239 10.8 131.519 8.64C132.799 6.45333 134.533 4.74666 136.719 3.52C138.906 2.29333 141.306 1.68 143.919 1.68C146.559 1.68 148.959 2.29333 151.119 3.52C153.306 4.74666 155.026 6.45333 156.279 8.64C157.559 10.8 158.199 13.24 158.199 15.96C158.199 18.44 157.666 20.7067 156.599 22.76C155.559 24.7867 154.133 26.44 152.319 27.72L158.719 34.92H151.759ZM135.359 15.96C135.359 17.8267 135.719 19.4667 136.439 20.88C137.159 22.2933 138.159 23.3867 139.439 24.16C140.746 24.9067 142.239 25.28 143.919 25.28C145.599 25.28 147.079 24.9067 148.359 24.16C149.639 23.3867 150.639 22.2933 151.359 20.88C152.079 19.4667 152.439 17.8267 152.439 15.96C152.439 14.0933 152.079 12.4667 151.359 11.08C150.639 9.66667 149.639 8.58667 148.359 7.84C147.079 7.09333 145.599 6.72 143.919 6.72C142.239 6.72 140.746 7.09333 139.439 7.84C138.159 8.58667 137.159 9.66667 136.439 11.08C135.719 12.4667 135.359 14.0933 135.359 15.96Z" fill="black"/>
</svg>
